# xmcd
#
# Track frame offsets:
# 150
# 14027
# 32232
# 46746
# 63291
# 79478
# 102175
# 116534
# 134641
# 150324
# 163525
# 179643
#
# Disc length: 2634 seconds
#
#
# Revision: 0
# Processed by: cddbd v1.5.2PL0 Copyright (c) Steve Scherf et al.
# Submitted via: Nero 7, 2, 0, 3 
#
DISCID=9e0a480c
DTITLE=Terri Clark - 20th Century Masters - The Millennium Collection 
DYEAR=2007
DGENRE=Country
TTITLE0=When Boy Meets Girl 
TTITLE1=Suddenly Single 
TTITLE2=Poor, Poor Pitiful Me 
TTITLE3=Now That I Found You 
TTITLE4=You're Easy on the Eyes 
TTITLE5=Unsung Hero
TTITLE6=Little Gasoline 
TTITLE7=No Fear 
TTITLE8=I Just Wanna Be Mad 
TTITLE9=I Wanna Do It All 
TTITLE10=Girls Lie Too
TTITLE11=World Needs a Drink 
EXTD=
EXTT0=
EXTT1=
EXTT2=
EXTT3=
EXTT4=
EXTT5=
EXTT6=
EXTT7=
EXTT8=
EXTT9=
EXTT10=
EXTT11=
PLAYORDER=
